<svg width="12" height="13" viewBox="0 0 12 13" fill="none" xmlns="http://www.w3.org/2000/svg">
<path d="M5.93327 4.99989H7.0666V3.29989H8.7666V2.16655H7.0666V0.466553H5.93327V2.16655H4.23327V3.29989H5.93327V4.99989ZM3.6666 10.0999C3.04327 10.0999 2.53894 10.6099 2.53894 11.2332C2.53894 11.8566 3.04327 12.3666 3.6666 12.3666C4.28994 12.3666 4.79994 11.8566 4.79994 11.2332C4.79994 10.6099 4.28994 10.0999 3.6666 10.0999ZM9.33327 10.0999C8.70994 10.0999 8.2056 10.6099 8.2056 11.2332C8.2056 11.8566 8.70994 12.3666 9.33327 12.3666C9.9566 12.3666 10.4666 11.8566 10.4666 11.2332C10.4666 10.6099 9.9566 10.0999 9.33327 10.0999ZM3.76294 8.25822L3.77994 8.19022L4.28994 7.26655H8.5116C8.9366 7.26655 9.3106 7.03422 9.50327 6.68289L11.6906 2.71055L10.7046 2.16655H10.6989L10.0756 3.29989L8.5116 6.13322H4.5336L4.45994 5.98022L3.1906 3.29989L2.65227 2.16655L2.1196 1.03322H0.266602V2.16655H1.39994L3.43994 6.46755L2.67494 7.85589C2.58427 8.01455 2.53327 8.20155 2.53327 8.39989C2.53327 9.02322 3.04327 9.53322 3.6666 9.53322H10.4666V8.39989H3.9046C3.83094 8.39989 3.76294 8.33755 3.76294 8.25822Z" fill="white"/>
</svg>
